<svg xmlns="http://www.w3.org/2000/svg" width="42" height="23" viewBox="0 0 42 23">
  <g fill="">
    <path d="M10.5777072,1.72280604 C9.29996702,2.31153561 8.21078114,3.30631602 7.37235152,4.75188845 L7.20802744,5.04702676 C6.32408346,6.70020444 5.04633652,7.53447327 3.51120414,7.76859851 C2.55873896,7.91386033 1.693681,7.80969685 1.1711889,7.65409756 C0.689217827,7.51056551 0.255108798,7.98805071 0.443755778,8.45421579 L4.30155578,17.9872158 C4.3699908,18.1563254 4.51164757,18.2851137 4.6864911,18.3371824 C5.36442065,18.5390714 6.39807761,18.6634938 7.54997021,18.4877785 C9.36162776,18.2114196 10.9130505,17.2378746 11.9815515,15.4014575 L12.124242,15.145673 C12.860128,13.7683995 13.8139254,12.8631601 14.9380762,12.3453328 C16.1795456,11.773464 17.5158176,11.7104151 18.7425359,11.949954 L18.9842175,12.0016869 L19.1626588,12.0484292 C19.1884944,12.0559268 19.212719,12.0633087 19.2358448,12.0706212 C19.7198201,12.2236569 20.1633362,11.7439909 19.9729242,11.2734642 L16.1151242,1.74046421 C16.0480153,1.57463156 15.9104078,1.44739476 15.7398352,1.39345879 C15.6776503,1.37379555 15.6107424,1.35407711 15.5346254,1.33393745 L15.2741608,1.27188883 C15.22465,1.26121478 15.1717154,1.25034394 15.1147962,1.23923053 C13.661935,0.955561349 12.0807903,1.03024779 10.5777072,1.72280604 Z M14.88484,2.41699119 L15.113,2.465 L18.44,10.686 L18.385086,10.6784536 C17.0996262,10.5194052 15.7385093,10.6554295 14.4360151,11.2554087 C13.1580812,11.8440743 12.0687746,12.8389111 11.2302788,14.2847845 L11.0659422,14.5799863 C10.1820053,16.2330022 8.90418728,17.0673181 7.36900979,17.3015015 L7.11159696,17.3350923 C6.43195929,17.4089695 5.81078909,17.3604335 5.34637343,17.2656584 L5.299,17.255 L1.963,9.011 L2.08272586,9.02113133 C2.56984444,9.05552467 3.11619056,9.04271821 3.69212586,8.95488149 C5.5037686,8.67858527 7.05515181,7.70506922 8.12363255,5.86852864 L8.26632036,5.6127264 C9.00213295,4.23579463 9.95586247,3.33057929 11.0798761,2.81268053 C12.3215299,2.24057805 13.6579862,2.17744963 14.88484,2.41699119 Z"></path>
    <path d="M15.3338178 1.40923028C15.6102754 1.2973617 15.9212417 1.40625803 16.0712839 1.65308663L16.1150697 1.74035781 24.1244697 21.5337578C24.2487681 21.8409329 24.1005173 22.1907113 23.7933422 22.3150097 23.5168846 22.4268783 23.2059183 22.317982 23.0558761 22.0711534L23.0120903 21.9838822 15.0026903 2.19048219C14.8783919 1.88330709 15.0266427 1.53352869 15.3338178 1.40923028zM37.6048 16.7344C37.4264 16.7994 33.1776 18.2652 30.7076 14.2394 27.7186 9.3654 22.7498 11.3258 22.7002 11.3448L25.9858 1.6C26.0354 1.581 31.0044-.3794 33.9932 4.4948 36.4634 8.5204 40.7122 7.0546 40.8906 6.9894L37.6048 16.7344z"></path>
    <path d="M26.6084821,1.15414299 L26.4538976,1.19234258 L26.193408,1.26508386 C26.1547797,1.27683411 26.1183372,1.28840877 26.0837694,1.29982441 L25.8963707,1.3665425 L25.7489029,1.52012671 L22.2935929,11.7682714 L22.8859247,11.5429236 L23.1225263,11.4677484 C23.2132344,11.4415724 23.3171573,11.4142016 23.4384163,11.3854042 C24.8219354,11.0568359 26.3105208,11.0957971 27.7018087,11.7506092 C28.6970948,12.2190424 29.5772916,12.9830117 30.3134586,14.0869908 L30.494483,14.3700949 C31.6215488,16.2070752 33.1902158,17.1034657 34.9925633,17.269891 C36.0943158,17.3716247 37.0720476,17.1945851 37.6903838,16.9692945 L37.8416962,16.8142762 L41.2938709,6.57584325 L40.8047839,6.7545903 C40.2530938,6.95621696 39.3423971,7.12117883 38.3243025,7.02720817 C36.7512023,6.88201021 35.3834191,6.13638511 34.3576124,4.60045581 L34.2063233,4.3641154 C33.3845454,3.02394208 32.367551,2.10273936 31.2000569,1.55331334 C29.691821,0.843533297 28.0926011,0.801695858 26.6084821,1.15414299 Z M30.9871529,2.00572015 C31.9825607,2.47416185 32.8628422,3.23820512 33.599077,4.34239289 L33.780118,4.62555196 C34.9072512,6.46240211 36.4759876,7.35873308 38.2783475,7.52509183 L38.5511524,7.54483256 C39.2711456,7.58267157 39.928236,7.50495169 40.4501314,7.38042433 L40.498,7.367 L37.406,16.538 L37.2135636,16.5963906 C36.6588253,16.7492256 35.8868865,16.850344 35.0385367,16.772009 C33.4654514,16.6267534 32.0977317,15.8810796 31.0719718,14.3450209 L30.9206896,14.1086605 C30.0989723,12.7687307 29.0820779,11.8476249 27.9147307,11.2982109 C26.4064045,10.5883146 24.8070886,10.5464552 23.3228859,10.8989345 L23.095,10.957 L26.183,1.794 L26.3747057,1.732718 L26.5946877,1.67242035 C26.6355022,1.66201038 26.6785369,1.65141215 26.7240087,1.64061356 C28.1074512,1.31207497 29.5959493,1.3510158 30.9871529,2.00572015 Z"></path>
    <path d="M25.4172236,1.40833376 C25.523089,1.09432873 25.8634612,0.925598208 26.1774662,1.0314636 C26.4600708,1.12674244 26.6250029,1.41197183 26.5779875,1.69697459 L26.5543364,1.79170624 L19.7327364,22.0251062 C19.626871,22.3391113 19.2864988,22.5078418 18.9724938,22.4019764 C18.6898892,22.3066976 18.5249571,22.0214682 18.5719725,21.7364654 L18.5956236,21.6417338 L25.4172236,1.40833376 Z"></path>
  </g>
</svg>
