<svg width="36" height="30" viewBox="0 0 36 30" xmlns="http://www.w3.org/2000/svg">
<path fill-rule="evenodd" clip-rule="evenodd" d="M16.6001 4.33435C16.6001 3.92014 16.9359 3.58435 17.3501 3.58435H32.0882C32.5024 3.58435 32.8382 3.92014 32.8382 4.33435V14.4063C32.8382 14.8205 32.5024 15.1563 32.0882 15.1563H17.3501C16.9359 15.1563 16.6001 14.8205 16.6001 14.4063V4.33435ZM23.8644 11.7057L26.6681 10.057C26.9539 9.88876 26.9539 9.46842 26.6681 9.30019L23.8644 7.65119C23.5788 7.48296 23.2212 7.69325 23.2212 8.02972V11.3272C23.2212 11.6637 23.5788 11.8742 23.8644 11.7057Z"></path>
<path fill-rule="evenodd" clip-rule="evenodd" d="M10.1297 18.6486C10.2361 18.2483 10.6469 18.01 11.0472 18.1164C12.8377 18.5923 14.3337 19.9652 15.5172 21.3539C16.338 22.317 17.0788 23.3793 17.6774 24.2375C17.9369 24.6097 18.1697 24.9435 18.3706 25.2142C18.607 25.5326 18.5546 25.98 18.2511 26.2352L17.7684 25.6612C18.2511 26.2352 18.2514 26.235 18.2511 26.2352L18.2498 26.2363L18.248 26.2379L18.2425 26.2424L18.2245 26.2572C18.2095 26.2695 18.1883 26.2867 18.161 26.3083C18.1065 26.3515 18.0279 26.4126 17.9265 26.4881C17.7236 26.639 17.4288 26.848 17.0518 27.0879C16.2987 27.5672 15.2122 28.1736 13.8708 28.6865C11.1881 29.7123 7.45142 30.3755 3.34089 28.8545C2.99521 28.7266 2.79371 28.3665 2.86554 28.005L3.60116 28.1511C2.86554 28.005 2.8655 28.0051 2.86554 28.005L2.86599 28.0027L2.86695 27.998L2.87036 27.9812L2.88323 27.9193C2.8945 27.8658 2.91118 27.7883 2.93331 27.6897C2.97757 27.4925 3.04371 27.2103 3.13218 26.8661C3.30885 26.1786 3.5759 25.2382 3.93741 24.2294C4.29803 23.2231 4.75831 22.1326 5.32551 21.1521C5.88767 20.1803 6.58449 19.2642 7.43969 18.6624C7.77844 18.424 8.24629 18.5054 8.48467 18.8442C8.72305 19.1829 8.64168 19.6507 8.30293 19.8891C7.70108 20.3126 7.13561 21.0187 6.62392 21.9032C6.11726 22.7791 5.69214 23.7793 5.34948 24.7355C5.00771 25.6892 4.75363 26.5831 4.58497 27.2394C4.54532 27.3937 4.51046 27.5346 4.48037 27.6597C7.90797 28.7393 11.0183 28.1713 13.3351 27.2854C14.5628 26.8159 15.559 26.26 16.2464 25.8225C16.4304 25.7053 16.5919 25.5969 16.7294 25.5013C16.6175 25.3424 16.5028 25.1778 16.3851 25.0087C15.805 24.176 15.1498 23.2354 14.3756 22.3269C13.2402 20.9946 11.9939 19.9201 10.6619 19.5661C10.2616 19.4597 10.0233 19.0489 10.1297 18.6486Z"></path>
<path fill-rule="evenodd" clip-rule="evenodd" d="M0.25 1C0.25 0.585786 0.585786 0.25 1 0.25H35C35.4142 0.25 35.75 0.585786 35.75 1V22.3543C35.75 22.7685 35.4142 23.1043 35 23.1043H15.37C14.9558 23.1043 14.62 22.7685 14.62 22.3543C14.62 21.9401 14.9558 21.6043 15.37 21.6043H34.25V1.75H1.75V21.6043H5.53545C5.94966 21.6043 6.28545 21.9401 6.28545 22.3543C6.28545 22.7685 5.94966 23.1043 5.53545 23.1043H1C0.585786 23.1043 0.25 22.7685 0.25 22.3543V1Z"></path>
<path fill-rule="evenodd" clip-rule="evenodd" d="M16.6001 18.3869C16.6001 17.9727 16.9359 17.6369 17.3501 17.6369H28.2751C28.6894 17.6369 29.0251 17.9727 29.0251 18.3869C29.0251 18.8011 28.6894 19.1369 28.2751 19.1369H17.3501C16.9359 19.1369 16.6001 18.8011 16.6001 18.3869Z"></path>
<path fill-rule="evenodd" clip-rule="evenodd" d="M9.38611 6.08713C7.9594 6.55857 6.44592 7.37015 5.3126 8.73014C4.43319 9.78542 4.42426 10.5218 4.5741 10.9788C4.67835 11.2968 4.88779 11.5679 5.12227 11.7739C5.29256 11.4964 5.54723 11.2564 5.9016 11.0792C6.49167 10.7841 7.09436 10.7424 7.59498 10.8023C7.77227 10.0762 8.15645 9.52915 8.66196 9.15001C9.33132 8.64796 10.1323 8.5 10.7369 8.5C11.0422 8.5 11.3261 8.57685 11.5848 8.7045C12.1732 7.89406 12.5384 7.25988 12.7523 6.77014C13.0183 6.16102 13.0239 5.83618 12.9985 5.69668C12.9798 5.59362 12.9428 5.56787 12.9085 5.54808C12.8817 5.53259 12.8473 5.51938 12.8092 5.51043C12.7909 5.50613 12.774 5.50338 12.7601 5.50177C12.7532 5.50098 12.7476 5.50052 12.7433 5.50027L12.7383 5.50004L12.7369 5.50001L12.7366 5.5L12.7365 5.5H12.7364C12.1089 5.5 10.8144 5.61515 9.38611 6.08713ZM3.14876 11.4462C3.47889 12.4531 4.27987 13.1095 4.89846 13.4195C4.92939 13.6029 4.96985 13.7763 5.00884 13.9319C5.19981 14.6958 5.59879 15.5573 6.19636 16.2428C6.44894 16.5326 6.7469 16.801 7.088 17.0148L7.27634 18.3332C7.45521 19.5853 8.6295 20.4448 9.8771 20.2369C11.1045 20.0323 11.9336 18.8715 11.7291 17.6441L11.596 16.8456C12.6847 16.1137 13.4869 14.7098 13.4869 12.25C13.4869 11.3441 13.1886 10.4505 12.736 9.77147C12.7244 9.75414 12.7127 9.73682 12.7007 9.71952C13.3866 8.7899 13.8444 8.01735 14.1269 7.37053C14.4546 6.62027 14.574 5.97635 14.4743 5.42835C14.3681 4.8439 14.0301 4.4634 13.6581 4.24881C13.3148 4.05071 12.9589 4 12.7364 4C11.9689 4 10.5134 4.13485 8.91547 4.66287C7.31594 5.19143 5.52694 6.12985 4.16027 7.76986C3.03967 9.11458 2.79861 10.3782 3.14876 11.4462ZM10.1715 17.4228C9.54626 17.5462 9.01666 17.5154 8.81274 17.5036L8.81269 17.5036C8.77717 17.5015 8.75154 17.5 8.73701 17.5C8.7154 17.5 8.69388 17.4998 8.67245 17.4993L8.76126 18.121C8.82105 18.5395 9.21352 18.8268 9.6305 18.7573C10.0407 18.6889 10.3178 18.301 10.2495 17.8907L10.1715 17.4228ZM9.56198 10.35C9.26772 10.5707 8.98701 10.9641 8.98701 11.75C8.98701 12.0099 8.85242 12.2513 8.6313 12.388C8.41019 12.5246 8.13409 12.5371 7.9016 12.4208C7.82205 12.381 7.61542 12.3065 7.35116 12.285C7.09343 12.264 6.8211 12.2965 6.57242 12.4208C6.47023 12.4719 6.42792 12.5188 6.40776 12.5476C6.38661 12.5779 6.36515 12.624 6.35345 12.7052C6.32601 12.8957 6.36402 13.1689 6.46395 13.5677L6.46405 13.5681C6.60641 14.1375 6.90771 14.7761 7.32709 15.2572C7.74358 15.735 8.22027 16 8.73701 16C8.79064 16 8.85331 16.0023 8.92357 16.0049C9.31849 16.0195 9.95319 16.043 10.5715 15.7132C11.1993 15.3784 11.9869 14.5558 11.9869 12.25C11.9869 11.6559 11.7852 11.0495 11.4879 10.6035C11.1687 10.1248 10.8662 10 10.7369 10C10.3416 10 9.89258 10.102 9.56198 10.35Z"></path>
</svg>
