<svg width="28" height="26" viewBox="0 0 28 26" xmlns="http://www.w3.org/2000/svg">
<path fill-rule="evenodd" clip-rule="evenodd" d="M14.0815 1.75815C12.0477 1.75815 10.4016 3.40316 10.4016 5.42901V12.5873C10.4016 14.6133 12.0477 16.2581 14.0815 16.2581H14.1654C16.1991 16.2581 17.8451 14.6133 17.8451 12.5873V5.42901C17.8451 3.40313 16.1991 1.75815 14.1654 1.75815H14.0815ZM8.90161 5.42901C8.90161 2.57185 11.2222 0.258148 14.0815 0.258148H14.1654C17.0247 0.258148 19.3451 2.57188 19.3451 5.42901V12.5873C19.3451 15.4446 17.0247 17.7581 14.1654 17.7581H14.0815C11.2222 17.7581 8.90161 15.4446 8.90161 12.5873V5.42901ZM6.85144 12.597C7.26565 12.597 7.60144 12.9328 7.60144 13.347C7.60144 16.9135 10.4988 19.8073 14.0762 19.8073C17.6535 19.8073 20.5511 16.9135 20.5511 13.347C20.5511 12.9328 20.8868 12.597 21.3011 12.597C21.7153 12.597 22.0511 12.9328 22.0511 13.347C22.0511 17.0823 19.4742 20.215 16 21.0741V24.174H17.0256C17.4399 24.174 17.7756 24.5098 17.7756 24.924C17.7756 25.3382 17.4399 25.674 17.0256 25.674H11.1266C10.7124 25.674 10.3766 25.3382 10.3766 24.924C10.3766 24.5098 10.7124 24.174 11.1266 24.174H12V21.0348C8.60311 20.1229 6.10144 17.0275 6.10144 13.347C6.10144 12.9328 6.43723 12.597 6.85144 12.597ZM6.01897 4.88857C6.31209 4.5959 6.31244 4.12103 6.01977 3.82791C5.72709 3.5348 5.25222 3.53445 4.95911 3.82712C4.2658 4.51939 3.81445 5.40389 3.81445 6.3993C3.81445 7.42771 4.29569 8.33669 5.02764 9.03859C5.3266 9.32528 5.80137 9.31534 6.08807 9.01637C6.37476 8.71741 6.36481 8.24264 6.06584 7.95594C5.56004 7.4709 5.31445 6.93251 5.31445 6.3993C5.31445 5.88261 5.54486 5.36198 6.01897 4.88857ZM21.9802 3.82791C22.2729 3.5348 22.7478 3.53445 23.0409 3.82712C23.7342 4.51939 24.1855 5.40389 24.1855 6.3993C24.1855 7.42771 23.7043 8.33669 22.9724 9.03859C22.6734 9.32529 22.1986 9.31534 21.9119 9.01637C21.6252 8.71741 21.6352 8.24264 21.9341 7.95594C22.4399 7.4709 22.6855 6.93251 22.6855 6.3993C22.6855 5.88261 22.4551 5.36198 21.981 4.88857C21.6879 4.5959 21.6875 4.12103 21.9802 3.82791ZM3.09032 3.46537C3.38342 3.17268 3.38375 2.69781 3.09106 2.40471C2.79838 2.11161 2.3235 2.11128 2.0304 2.40397C0.935822 3.49702 0.25 4.86452 0.25 6.38003C0.25 7.94529 0.981107 9.35153 2.13849 10.4616C2.43743 10.7484 2.9122 10.7385 3.19892 10.4395C3.48564 10.1406 3.47574 9.66581 3.17681 9.37909C2.24538 8.48572 1.75 7.45 1.75 6.38003C1.75 5.34328 2.21485 4.33962 3.09032 3.46537ZM24.909 2.40471C25.2017 2.11161 25.6766 2.11128 25.9697 2.40397C27.0642 3.49702 27.7501 4.86452 27.7501 6.38003C27.7501 7.94529 27.0189 9.35153 25.8616 10.4616C25.5626 10.7484 25.0879 10.7385 24.8011 10.4395C24.5144 10.1406 24.5243 9.66581 24.8233 9.37909C25.7547 8.48572 26.2501 7.45 26.2501 6.38003C26.2501 5.34328 25.7852 4.33962 24.9097 3.46537C24.6166 3.17268 24.6163 2.69781 24.909 2.40471Z"></path>
</svg>
