<svg xmlns="http://www.w3.org/2000/svg" width="24" height="24" viewBox="0 0 24 24">
  <g fill="">
    <path d="M21.47485,8.91475 L1.8589,8.91475 L1.8589,23.1328 L21.47485,23.1328 L21.47485,8.91475 Z M19.974,10.414 L19.974,21.632 L3.358,21.632 L3.358,10.414 L19.974,10.414 Z"></path>
    <path d="M23.083555,4.307335 L0.249955,4.307335 L0.249955,7.806985 C0.249955,9.24723112 1.417524,10.414735 2.857855,10.414735 L20.475805,10.414735 C21.9160186,10.414735 23.083555,9.24719856 23.083555,7.806985 L23.083555,4.307335 Z M1.749,5.807 L21.583,5.807 L21.583555,7.806985 C21.583555,8.41877144 21.0875914,8.914735 20.475805,8.914735 L2.857855,8.914735 L2.73712902,8.90823496 C2.18200642,8.84809348 1.749955,8.37799858 1.749955,7.806985 L1.749,5.807 Z"></path>
    <path d="M22.333555,5.057335 L0.999955,5.057335 L0.999955,7.806985 C0.999955,8.832985 1.831705,9.664735 2.857855,9.664735 L20.475805,9.664735 C21.501805,9.664735 22.333555,8.832985 22.333555,7.806985 L22.333555,5.057335 Z"></path>
    <path d="M13.663495.249985L9.670045.249985C8.26463144.249985 7.125295 1.38932144 7.125295 2.794735L7.125295 5.807335 16.208245 5.807335 16.208245 2.794735C16.208245 1.38932144 15.0689086.249985 13.663495.249985zM13.663495 1.749985L13.7773297 1.75611561C14.300771 1.81283891 14.708245 2.25621432 14.708245 2.794735L14.708 4.307 8.625 4.307 8.625295 2.794735C8.625295 2.21774856 9.09305856 1.749985 9.670045 1.749985L13.663495 1.749985zM14.0326 8.9146L9.301 8.9146 9.301 14.0422 14.0326 14.0422 14.0326 8.9146zM12.532 10.414L12.532 12.542 10.801 12.542 10.801 10.414 12.532 10.414z"></path>
    <polygon points="16.82 18.064 16.82 19.564 6.514 19.564 6.514 18.064"></polygon>
  </g>
</svg>
