<svg xmlns="http://www.w3.org/2000/svg" width="27" height="29" viewBox="0 0 27 29">
  <g fill="">
    <path d="M23.47948,0.85014 L3.87528,0.85014 C2.20446644,0.85014 0.85008,2.20452644 0.85008,3.87534 L0.85008,22.02394 C0.85008,23.6947536 2.20446644,25.04914 3.87528,25.04914 L23.47948,25.04914 C25.1502936,25.04914 26.50468,23.6947536 26.50468,22.02394 L26.50468,3.87534 C26.50468,2.20452644 25.1502936,0.85014 23.47948,0.85014 Z M3.87528,2.35014 L23.47948,2.35014 C24.3218664,2.35014 25.00468,3.03295356 25.00468,3.87534 L25.00468,22.02394 C25.00468,22.8663264 24.3218664,23.54914 23.47948,23.54914 L3.87528,23.54914 C3.03289356,23.54914 2.35008,22.8663264 2.35008,22.02394 L2.35008,3.87534 C2.35008,3.03295356 3.03289356,2.35014 3.87528,2.35014 Z"></path>
    <path d="M16.8558,23.5492 L10.499,23.5492 L10.499,28.6238 L16.8558,28.6238 L16.8558,23.5492 Z M15.355,25.049 L15.355,27.123 L11.999,27.123 L11.999,25.049 L15.355,25.049 Z"></path>
    <polygon points="11.249 27.874 16.106 27.874 16.106 24.299 11.249 24.299"></polygon>
    <polygon points="19.151 27.124 19.151 28.624 8.204 28.624 8.204 27.124"></polygon>
    <polygon points="25.755 18.867 25.755 20.367 1.6 20.367 1.6 18.867"></polygon>
    <path d="M13.54962,4.2807 C10.8736064,4.2807 8.70422,6.45008644 8.70422,9.1261 C8.70422,11.802277 10.8735698,13.9717 13.54962,13.9717 C16.2256702,13.9717 18.39502,11.802277 18.39502,9.1261 C18.39502,6.45008644 16.2256336,4.2807 13.54962,4.2807 Z M13.54962,5.7807 C15.3972064,5.7807 16.89502,7.27851356 16.89502,9.1261 C16.89502,10.9738612 15.3972317,12.4717 13.54962,12.4717 C11.7020083,12.4717 10.20422,10.9738612 10.20422,9.1261 C10.20422,7.27851356 11.7020336,5.7807 13.54962,5.7807 Z"></path>
    <path d="M16.347188 11.4656044C19.0978227 12.8538634 20.9359257 16.1547831 21.0387147 19.8924683L21.04326 20.22336 19.54326 20.22336C19.54326 16.991381 18.0624617 14.1457244 15.884275 12.9183959L15.671332 12.8047156 16.347188 11.4656044zM10.3576343 11.6816116L11.1208857 12.9729084C9.05634186 14.1932057 7.65211787 16.8626465 7.56079688 19.9070303L7.55606 20.22326 6.05606 20.22326C6.05606 16.6546147 7.63908664 13.4302649 10.122224 11.8271181L10.3576343 11.6816116z"></path>
  </g>
</svg>
