<svg version="1.0" xmlns="http://www.w3.org/2000/svg"
 width="149.000000pt" height="150.000000pt" viewBox="0 0 149.000000 150.000000"
 preserveAspectRatio="xMidYMid meet">

<g transform="translate(0.000000,150.000000) scale(0.100000,-0.100000)"
fill="#000000" stroke="none">
<path d="M585 1475 c-250 -55 -458 -243 -539 -487 -14 -42 -26 -85 -25 -95 0
-10 10 16 23 57 38 130 95 227 187 319 138 137 313 210 507 211 113 0 209 -23
322 -77 81 -39 107 -58 185 -137 95 -95 138 -164 182 -286 14 -38 21 -51 17
-30 -10 59 -90 212 -146 280 -30 36 -80 84 -112 108 -77 58 -206 119 -291 137
-85 18 -229 18 -310 0z"/>
<path d="M673 1401 c12 -22 25 -37 29 -35 8 5 -30 74 -42 74 -5 0 1 -18 13
-39z"/>
<path d="M730 1395 c0 -25 5 -45 10 -45 6 0 10 20 10 45 0 25 -4 45 -10 45 -5
0 -10 -20 -10 -45z"/>
<path d="M818 1425 c-3 -4 -2 -20 3 -38 10 -35 29 -60 28 -36 -1 25 -24 80
-31 74z"/>
<path d="M890 1384 c-7 -21 -8 -40 -3 -45 5 -5 13 10 19 36 12 54 1 60 -16 9z"/>
<path d="M563 1397 c2 -7 14 -17 27 -24 12 -6 27 -17 31 -25 6 -9 9 -8 9 7 0
14 -12 26 -36 37 -22 10 -34 12 -31 5z"/>
<path d="M977 1350 c-19 -50 -3 -53 18 -4 17 42 18 44 7 44 -5 0 -16 -18 -25
-40z"/>
<path d="M470 1369 c0 -13 50 -59 64 -59 6 0 -5 16 -24 35 -37 39 -40 40 -40
24z"/>
<path d="M396 1322 c12 -9 26 -26 32 -37 11 -20 11 -20 12 1 0 23 -29 54 -51
54 -9 0 -7 -6 7 -18z"/>
<path d="M1095 1318 c-7 -24 0 -78 10 -74 11 3 9 86 -2 86 -2 0 -5 -6 -8 -12z"/>
<path d="M350 1314 c0 -13 42 -74 51 -74 13 0 11 7 -13 45 -21 32 -38 45 -38
29z"/>
<path d="M646 1268 c-26 -7 -60 -31 -100 -69 -73 -72 -91 -75 -83 -18 l5 42
-45 -44 c-60 -59 -92 -116 -100 -177 -8 -72 -18 -83 -47 -50 l-23 26 -12 -38
c-16 -56 -14 -90 14 -172 26 -76 31 -108 17 -108 -10 0 -55 47 -71 75 -12 19
-12 18 -7 -5 3 -14 6 -41 7 -60 1 -30 2 -31 8 -11 5 21 9 16 24 -32 23 -71 51
-105 132 -156 78 -50 83 -68 19 -73 -41 -3 -49 0 -72 27 -14 16 -40 62 -59
100 -19 39 -31 59 -27 45 29 -110 151 -253 263 -309 34 -18 65 -31 66 -29 2 2
-24 18 -58 36 -34 18 -78 47 -98 65 -19 17 -28 27 -20 21 47 -34 83 -44 164
-44 110 0 127 -15 66 -59 -23 -17 -38 -31 -33 -31 5 -1 35 -7 67 -15 51 -12
58 -12 53 1 -4 10 2 14 23 14 15 0 57 16 93 35 36 19 68 31 72 28 12 -13 6
-43 -14 -63 -25 -25 -18 -25 53 -2 83 28 101 43 143 126 22 42 42 76 45 76 3
0 14 -9 24 -20 15 -17 16 -24 6 -46 -19 -42 -5 -40 23 3 40 61 60 146 52 224
-7 83 5 96 45 48 l28 -34 -5 75 c-8 110 -22 162 -60 226 -46 77 -43 93 11 58
38 -25 30 -6 -33 75 -70 92 -97 112 -156 118 -29 4 -46 10 -46 19 0 19 33 34
58 27 12 -3 22 -3 22 1 0 11 -167 56 -211 56 -25 0 -68 -7 -95 -15 -64 -19
-61 -20 -56 15 5 34 -3 36 -72 18z m240 -104 c124 -34 245 -154 284 -281 86
-279 -120 -553 -415 -553 -179 0 -326 94 -402 256 -25 53 -28 70 -28 170 0
107 1 112 38 186 95 194 305 283 523 222z"/>
<path d="M722 1130 c0 -19 2 -27 5 -17 2 9 2 25 0 35 -3 9 -5 1 -5 -18z"/>
<path d="M783 1146 c4 -10 7 -24 7 -32 0 -9 4 -13 9 -10 11 7 3 44 -12 53 -7
4 -8 0 -4 -11z"/>
<path d="M650 1127 c0 -14 5 -29 10 -32 7 -4 8 3 4 22 -9 38 -14 42 -14 10z"/>
<path d="M681 1143 c0 -4 4 -17 9 -28 8 -19 9 -19 9 2 1 12 -3 25 -9 28 -5 3
-10 3 -9 -2z"/>
<path d="M850 1119 c-7 -11 -10 -23 -7 -25 2 -2 9 7 15 21 14 30 7 33 -8 4z"/>
<path d="M906 1094 c-10 -14 -16 -28 -13 -30 2 -3 12 7 21 22 10 14 16 28 13
30 -2 3 -12 -7 -21 -22z"/>
<path d="M570 1100 c0 -4 11 -10 25 -12 13 -3 22 -2 20 2 -7 11 -45 20 -45 10z"/>
<path d="M960 1065 c-7 -9 -11 -17 -9 -20 3 -2 10 5 17 15 14 24 10 26 -8 5z"/>
<path d="M510 1061 c0 -4 11 -13 25 -19 14 -6 25 -8 25 -3 0 4 -11 13 -25 19
-14 6 -25 8 -25 3z"/>
<path d="M645 1046 c-94 -44 -162 -145 -172 -257 -6 -58 -6 -59 21 -59 23 0
25 2 14 20 -15 24 -4 37 17 20 13 -11 21 -8 50 20 39 38 44 55 17 62 -26 7
-22 72 7 128 8 15 33 21 80 20 13 0 30 5 37 11 10 9 15 8 19 -3 4 -10 15 -13
31 -10 16 3 24 0 24 -9 0 -7 7 -3 16 9 24 35 41 21 46 -36 1 -7 8 -10 15 -7
10 3 14 -2 12 -18 -3 -27 10 -58 30 -73 12 -9 13 -15 4 -26 -7 -8 -9 -24 -6
-37 4 -17 -1 -29 -23 -46 -16 -13 -27 -25 -24 -27 3 -2 44 -2 93 0 l87 3 0 34
c0 18 -9 62 -20 97 -52 169 -226 254 -375 184z"/>
<path d="M992 1040 c-8 -13 -8 -20 -2 -20 6 0 13 7 17 15 9 24 -1 27 -15 5z"/>
<path d="M476 1016 c21 -15 30 -14 19 3 -3 6 -14 11 -23 11 -13 0 -13 -2 4
-14z"/>
<path d="M1011 1010 c-13 -11 -19 -20 -14 -20 6 0 18 9 28 20 23 25 17 25 -14
0z"/>
<path d="M454 991 c11 -11 23 -21 28 -21 14 0 -1 19 -25 31 -22 12 -22 12 -3
-10z"/>
<path d="M1055 953 l-17 -28 23 22 c12 12 20 25 17 28 -3 3 -13 -7 -23 -22z"/>
<path d="M688 938 c22 -23 40 -34 52 -31 24 7 36 -16 17 -34 -15 -16 -42 -9
-32 8 4 5 -8 9 -24 9 -17 0 -31 -5 -31 -11 0 -6 7 -8 15 -5 9 3 18 -1 21 -9 4
-8 13 -15 20 -15 12 0 12 -4 4 -20 -6 -11 -17 -20 -24 -20 -18 0 -63 -37 -76
-61 -10 -18 -7 -19 60 -19 67 0 70 1 60 19 -16 31 -12 50 21 104 l31 50 -24
18 c-12 10 -31 16 -41 13 -9 -3 -32 5 -50 17 l-32 22 33 -35z"/>
<path d="M410 950 c-13 -9 -13 -10 0 -9 8 0 24 4 35 9 l20 9 -20 0 c-11 0 -27
-4 -35 -9z"/>
<path d="M1070 920 l-25 -21 28 12 c15 7 27 16 27 21 0 11 -1 10 -30 -12z"/>
<path d="M384 891 c5 -8 56 -3 56 5 0 2 -14 4 -31 4 -16 0 -28 -4 -25 -9z"/>
<path d="M1080 884 l-25 -15 25 7 c14 3 29 10 35 15 15 14 -7 10 -35 -7z"/>
<path d="M818 883 c6 -2 18 -2 25 0 6 3 1 5 -13 5 -14 0 -19 -2 -12 -5z"/>
<path d="M1110 815 c-13 -14 -19 -25 -13 -25 12 0 48 38 41 45 -2 3 -15 -6
-28 -20z"/>
<path d="M365 800 c3 -5 14 -10 23 -10 15 0 15 2 2 10 -20 13 -33 13 -25 0z"/>
<path d="M1103 743 c9 -2 25 -2 35 0 9 3 1 5 -18 5 -19 0 -27 -2 -17 -5z"/>
<path d="M363 733 c9 -2 23 -2 30 0 6 3 -1 5 -18 5 -16 0 -22 -2 -12 -5z"/>
<path d="M475 688 c26 -88 83 -161 158 -200 33 -18 58 -23 122 -23 95 0 139
19 202 88 47 51 57 68 71 120 l10 37 -284 0 -285 0 6 -22z m545 -3 c0 -29 -49
-112 -84 -143 -64 -56 -94 -67 -181 -67 -69 0 -86 4 -127 27 -59 35 -113 98
-132 154 l-15 44 270 0 c235 0 269 -2 269 -15z"/>
<path d="M540 641 c0 -28 8 -49 26 -71 15 -17 30 -28 35 -23 13 14 23 133 11
133 -6 0 -12 -24 -14 -52 -2 -39 -7 -53 -18 -53 -11 0 -16 14 -18 53 -4 60
-22 71 -22 13z"/>
<path d="M651 666 c-18 -22 -6 -60 24 -80 27 -18 32 -40 13 -52 -6 -4 -19 3
-30 16 -16 20 -18 21 -18 3 0 -42 51 -59 70 -23 15 27 3 66 -26 85 -26 17 -32
45 -9 45 7 0 19 -8 25 -17 9 -16 10 -15 8 7 -4 30 -38 39 -57 16z"/>
<path d="M744 666 c-12 -32 1 -71 29 -84 30 -14 35 -33 13 -51 -11 -10 -17 -8
-29 9 -18 26 -28 14 -16 -17 12 -33 56 -31 69 3 13 33 3 72 -20 79 -27 9 -40
28 -30 45 7 12 12 11 29 -4 21 -19 26 -12 15 18 -8 20 -53 21 -60 2z"/>
<path d="M834 634 c3 -26 6 -64 6 -86 0 -22 3 -37 8 -35 11 8 2 167 -10 167
-7 0 -8 -16 -4 -46z"/>
<path d="M890 623 c-6 -32 -14 -66 -16 -75 -3 -10 -1 -18 5 -18 6 0 11 9 11
20 0 24 39 48 50 30 5 -8 10 -8 14 -2 7 12 -31 102 -44 102 -5 0 -14 -26 -20
-57z m39 -15 c1 -5 -6 -8 -14 -8 -16 0 -19 9 -8 36 6 16 7 16 14 -2 4 -10 8
-22 8 -26z"/>
<path d="M357 653 c27 -175 195 -303 397 -303 179 0 332 94 385 236 33 86 30
94 -29 94 -38 0 -50 -4 -50 -15 0 -31 -49 -112 -90 -149 -44 -39 -112 -75
-142 -76 -23 0 -23 -16 -2 -28 9 -5 15 -14 13 -21 -3 -7 -15 -1 -32 15 -15 14
-35 24 -45 23 -9 -2 -33 1 -52 5 -125 26 -218 106 -251 214 -12 42 -12 42 -60
42 l-48 0 6 -37z m77 -15 c7 -12 6 -21 -3 -32 -18 -21 -28 -20 -41 5 -9 15 -8
24 1 35 14 17 28 14 43 -8z m666 12 c0 -5 7 -10 15 -10 8 0 15 -4 15 -10 0 -5
-8 -10 -19 -10 -10 0 -24 -7 -31 -15 -10 -12 -9 -16 4 -21 9 -3 16 -11 16 -16
0 -6 -7 -7 -16 -4 -26 10 -37 -4 -18 -25 20 -23 6 -25 -22 -4 -12 10 -15 17
-8 22 6 5 17 23 25 41 8 17 18 32 23 32 4 0 6 7 2 15 -3 8 -1 15 4 15 6 0 10
-4 10 -10z m-662 -80 c-19 -16 -20 -19 -6 -20 9 0 20 5 23 10 4 7 14 2 26 -11
23 -27 24 -36 4 -55 -14 -14 -19 -11 -16 9 0 4 -2 6 -6 6 -22 -4 -24 3 -7 22
18 20 18 20 -9 14 -34 -9 -50 21 -22 41 27 20 39 5 13 -16z m610 -68 c7 7 12
8 12 4 0 -5 -8 -15 -17 -22 -15 -10 -21 -10 -35 3 -10 9 -18 11 -18 5 0 -6 5
-14 10 -17 13 -8 13 -25 0 -25 -5 0 -14 9 -20 21 -9 17 -8 23 7 34 15 11 21
11 34 -1 12 -11 18 -11 27 -2z m-489 -21 c12 -8 12 -12 0 -29 -13 -17 -17 -18
-33 -6 -16 11 -17 16 -6 29 14 17 20 18 39 6z m415 -24 c8 -13 7 -20 -4 -27
-22 -14 -28 -12 -41 11 -9 17 -8 23 2 30 18 11 30 7 43 -14z m-377 -3 c-3 -4
-2 -15 4 -26 14 -26 6 -32 -20 -18 -17 9 -19 15 -11 30 6 11 16 20 22 20 6 0
8 -3 5 -6z m41 -23 c27 -23 28 -41 2 -41 -11 0 -20 5 -20 11 0 5 5 7 11 3 6
-3 3 5 -6 20 -20 31 -16 33 13 7z m282 0 c5 -11 6 -22 1 -25 -4 -3 -13 6 -19
19 -14 30 2 34 18 6z m-237 -5 c3 4 14 4 23 0 16 -6 15 -8 -4 -26 -26 -25 -32
-25 -32 -2 0 10 -6 24 -12 32 -11 12 -10 12 3 2 9 -6 19 -9 22 -6z m205 -7 c8
-12 8 -20 2 -24 -6 -3 -10 -1 -10 4 0 6 -7 11 -15 11 -8 0 -15 6 -15 13 0 20
25 17 38 -4z m-137 -39 c5 0 9 9 9 20 0 11 5 20 11 20 16 0 6 -44 -11 -47 -26
-5 -44 13 -35 33 8 17 9 17 12 -3 3 -13 9 -23 14 -23z"/>
<path d="M395 631 c-3 -5 -1 -12 5 -16 12 -7 30 2 30 16 0 12 -27 12 -35 0z"/>
<path d="M940 465 c0 -5 5 -17 10 -25 5 -8 10 -10 10 -5 0 6 -5 17 -10 25 -5
8 -10 11 -10 5z"/>
<path d="M1142 1258 c-14 -14 -16 -54 -3 -62 5 -4 7 2 4 12 -5 20 21 47 52 55
14 3 11 5 -10 6 -17 0 -36 -4 -43 -11z"/>
<path d="M263 1244 c4 -4 15 -9 25 -10 9 -2 33 -6 52 -9 25 -5 32 -3 25 4 -13
13 -114 28 -102 15z"/>
<path d="M1251 1169 c-21 -23 -33 -57 -22 -63 4 -3 17 15 29 39 24 50 22 55
-7 24z"/>
<path d="M225 1172 c6 -7 26 -15 45 -18 26 -5 32 -4 25 4 -6 7 -26 15 -45 18
-26 5 -32 4 -25 -4z"/>
<path d="M1286 1105 c-10 -8 -24 -16 -30 -18 -6 -2 -8 -8 -4 -12 6 -7 78 31
78 41 0 9 -26 3 -44 -11z"/>
<path d="M210 1092 c0 -5 7 -13 16 -16 10 -4 14 -1 12 6 -5 15 -28 23 -28 10z"/>
<path d="M141 1078 c-1 -23 26 -48 52 -48 19 0 18 2 -9 19 -18 11 -34 25 -37
33 -4 9 -6 8 -6 -4z"/>
<path d="M1328 1023 c-21 -9 -38 -20 -38 -25 0 -5 3 -8 8 -6 4 2 24 10 45 18
20 8 37 18 37 22 0 10 -8 9 -52 -9z"/>
<path d="M90 980 c0 -18 71 -43 83 -31 8 8 6 11 -6 11 -10 0 -31 7 -47 15 -19
10 -30 11 -30 5z"/>
<path d="M1452 890 c0 -14 2 -19 5 -12 2 6 2 18 0 25 -3 6 -5 1 -5 -13z"/>
<path d="M7 820 c-4 -30 -6 -73 -6 -95 1 -23 5 -7 10 40 10 91 7 138 -4 55z"/>
<path d="M1464 750 c0 -63 1 -89 3 -57 2 31 2 83 0 115 -2 31 -3 5 -3 -58z"/>
<path d="M95 800 c-8 -14 3 -30 21 -30 8 0 14 9 14 20 0 21 -24 28 -35 10z"/>
<path d="M1372 793 c5 -26 38 -29 38 -4 0 15 -6 21 -21 21 -14 0 -19 -5 -17
-17z"/>
<path d="M1381 659 c-13 -17 -21 -33 -17 -36 3 -4 7 -4 9 -2 1 2 15 19 31 37
19 20 25 32 15 31 -8 0 -25 -14 -38 -30z"/>
<path d="M12 660 c0 -14 2 -19 5 -12 2 6 2 18 0 25 -3 6 -5 1 -5 -13z"/>
<path d="M110 658 c0 -5 11 -8 24 -8 13 0 31 -3 40 -6 9 -3 16 -2 16 4 0 5
-18 12 -40 14 -22 2 -40 0 -40 -4z"/>
<path d="M211 614 c0 -11 3 -14 6 -6 3 7 2 16 -1 19 -3 4 -6 -2 -5 -13z"/>
<path d="M1446 591 c-7 -43 -7 -44 -22 -23 -16 23 -48 29 -59 12 -3 -6 4 -10
18 -10 28 0 52 -24 42 -41 -4 -6 -22 -9 -41 -7 -21 2 -33 0 -31 -6 2 -6 18
-11 35 -11 34 0 41 -15 18 -34 -11 -10 -21 -9 -45 3 -16 9 -32 12 -35 8 -3 -5
10 -16 29 -25 39 -18 41 -25 22 -51 -13 -17 -15 -17 -46 -1 -18 9 -36 13 -39
9 -4 -4 -1 -9 5 -11 30 -11 54 -39 48 -56 -8 -19 -17 -21 -63 -8 -17 5 -32 6
-32 1 0 -5 14 -11 30 -15 38 -8 38 -19 -1 -63 -134 -153 -333 -242 -539 -242
-308 0 -568 183 -682 480 -16 41 -26 62 -23 47 22 -108 110 -253 209 -344 137
-125 278 -183 467 -191 95 -4 130 -1 199 17 214 54 384 190 482 386 38 75 73
185 66 207 -3 7 -8 -7 -12 -31z"/>
<path d="M22 600 c0 -14 2 -19 5 -12 2 6 2 18 0 25 -3 6 -5 1 -5 -13z"/>
<path d="M153 578 c-12 -18 -20 -34 -17 -37 6 -6 54 49 54 62 0 16 -16 5 -37
-25z"/>
<path d="M152 497 c-12 -7 -20 -16 -16 -19 6 -7 51 9 69 24 15 13 -28 9 -53
-5z"/>
<path d="M205 461 c-3 -6 -17 -11 -31 -11 -14 0 -22 -4 -19 -10 9 -15 41 -12
55 5 7 9 10 18 7 21 -3 3 -8 1 -12 -5z"/>
<path d="M206 405 c-10 -7 -16 -18 -15 -24 2 -6 18 0 34 14 32 26 15 36 -19
10z"/>
<path d="M275 308 c8 -36 12 -44 20 -36 8 8 -7 68 -17 68 -6 0 -7 -14 -3 -32z"/>
<path d="M1190 294 c0 -15 43 -64 51 -58 5 3 -1 18 -13 34 -22 27 -38 38 -38
24z"/>
<path d="M342 251 c-12 -17 -18 -32 -13 -35 7 -5 51 45 51 59 0 14 -18 2 -38
-24z"/>
<path d="M1116 232 c-9 -28 8 -52 38 -51 20 0 20 1 1 8 -11 5 -22 21 -26 37
-5 28 -5 28 -13 6z"/>
<path d="M407 211 c-19 -33 -21 -41 -9 -41 8 0 16 14 40 63 2 4 0 7 -5 7 -5 0
-16 -13 -26 -29z"/>
<path d="M460 207 c0 -9 -7 -17 -15 -17 -17 0 -19 -18 -5 -40 8 -13 10 -12 10
4 0 10 8 25 18 32 14 10 15 15 5 25 -11 11 -13 10 -13 -4z"/>
<path d="M1079 177 c15 -33 16 -33 19 -9 2 14 -2 29 -10 33 -24 15 -26 10 -9
-24z"/>
<path d="M497 155 c-13 -27 -14 -35 -4 -35 8 0 18 16 24 35 6 19 8 35 4 35 -4
0 -15 -16 -24 -35z"/>
<path d="M1018 184 c-13 -12 -9 -31 8 -48 21 -22 41 -20 22 2 -9 9 -18 25 -19
35 -2 11 -7 15 -11 11z"/>
<path d="M552 143 c-6 -21 -9 -39 -7 -42 8 -7 15 4 25 38 12 44 -5 48 -18 4z"/>
<path d="M930 148 c0 -5 8 -11 18 -14 9 -3 25 -10 35 -15 12 -6 17 -5 17 3 0
7 -16 18 -35 24 -19 6 -35 7 -35 2z"/>
<path d="M640 141 c0 -17 48 -62 54 -52 3 4 -8 21 -24 36 -17 17 -30 23 -30
16z"/>
<path d="M857 144 c-10 -11 13 -34 33 -34 10 0 21 -6 23 -12 3 -8 6 -7 6 4 1
9 -9 20 -21 24 -13 4 -26 11 -29 15 -3 5 -8 6 -12 3z"/>
<path d="M780 135 c0 -4 7 -19 15 -35 22 -42 38 -37 18 5 -14 30 -33 47 -33
30z"/>
</g>
</svg>
