<svg width="96" height="92" xmlns="http://www.w3.org/2000/svg" xmlns:xlink="http://www.w3.org/1999/xlink"><defs><path id="a" d="M0 0h29v40H0z"/><path id="c" d="M0 0h5v28H0z"/><path id="e" d="M0 0h5v28H0z"/></defs><g fill="none" fill-rule="evenodd"><path d="M1.5 30.5C5 17 23.5.5 33 .5S42.5 10 56 10s31.5-2.5 36 9 6.5 25-1.5 37.5S81.5 92 65 92s-22-8-32-27.5c-8-14-20-3-28-16.5.5-2.5-7-4-3.5-17.5z" fill="#EBF0F3"/><g transform="translate(36 39)"><mask id="b" fill="#fff"><use xlink:href="#a"/></mask><path d="M6.679 35.09s-1.838-6.565 0-14.245c0 0-4.29-.371-6.618-16.97-.31-2.207.613-1.362 1.593 1.24.98 2.6 2.083 13.72 9.927 13.734 7.843.014 12.745-14.287 13.97-16.24 1.226-1.954 3.677-4.735 3.432 0-.245 4.735-3.677 13.034-9.56 17.865 0 0 .369 8.794-1.347 13.253 0 0 6.127-.743 5.882 2.106-.245 2.849-.612 3.096-3.064 3.096-2.45 0-8.7.372-12.132.744-3.431.371-10.294.99-8.21-1.858 2.083-2.85 6.127-2.725 6.127-2.725" fill="#E6493C" mask="url(#b)"/></g><path d="M50.014 46.876c-.213-2.02-1.19-6.051-1.347-7.65-.049-.5-.121-1.294-.186-2.347.698-.222 1.246-.402 1.478-.459.32-.078 1.291-.251 2.43-.501.087 2.464.321 4.625.781 4.625.593 0 .624-2.94.656-4.966.66-.17 1.311-.363 1.876-.573-.932 5.925-2.645 11.26-5.688 11.871m-6.357-8.823c1.027-.065 2.553-.477 3.862-.874.303 4.325.88 7.971 1.56 9.749-3.508-.217-4.901-4.201-5.422-8.875m-.267-8.432c.833-.439 2.313-1.095 3.935-1.672a94.75 94.75 0 00.072 7.159c-1.438.436-2.918.972-3.874 1.496-.175-2.36-.17-4.811-.133-6.983m6.095-18.684c.125-.007.245-.01.365-.013a85.095 85.095 0 00-1.476 6.94 34.517 34.517 0 00-3.387 1.46c-1.848.931-1.414 2.416 0 1.852.691-.275 1.805-.846 3.085-1.416-.3 2.032-.55 4.26-.678 6.553-1.48.788-2.815 1.784-3.992 2.685.019-.953.042-1.842.054-2.632.096-6.116 0-15.105 6.03-15.43m1.014 14.18a11.51 11.51 0 00-1.972.653c.125-1.989.32-4.153.61-6.464 1.051-.427 2.16-.807 3.212-1 .262-.049.566-.111.896-.184-.335 1.805-.597 4.217-.752 6.507-.64.162-1.307.331-1.994.488m1.857 7.413c-.007.454-.009.928-.006 1.41-.461.113-.886.208-1.239.258-.58.082-1.595.312-2.728.626a91.748 91.748 0 01.047-7.245c.697-.22 1.399-.415 2.069-.563.566-.124 1.213-.267 1.886-.423-.012.27-.022.536-.03.794 0 0 .048 1.715 0 5.143m3.995-16.54c-.494.04-.986.095-1.473.165-.014-.562-.15-.907-.512-.907-.25 0-.488.416-.705 1.111a32.47 32.47 0 00-4.283 1.15c.106-.741.22-1.494.346-2.261.371-2.258.532-3.572.582-4.325 4.089.04 5.493 2.2 6.045 5.067m.312 2.663c.064.955.09 2.883.014 5.302-.717-.05-1.555.071-2.48.269.059-1.426.118-2.643.17-3.37.075-1.06.254-2.156.38-3.096a44.504 44.504 0 001.793-.503c.052.456.092.924.123 1.398m-.694 14.484c-.61.06-1.348.227-2.093.414.051-1.777.144-4.708.244-7.38.924-.238 1.805-.49 2.5-.738a94.815 94.815 0 01-.65 7.704m3.804-18.816c-.622-6.255-7.56-6.672-12.873-6.162-5.311.51-6.173 14.224-5.838 27.197.335 12.974 7.184 14.793 9.092 14.637 10.289-.839 10.24-29.417 9.619-35.672" fill="#E6493C"/><path d="M37.866 15c.525-.045-.66 5.854-.66 8.33 0 2.477.896 5.764-.471 6.574-1.368.81-1.886-3.717-1.698-5.64.189-1.925 1.792-9.174 2.829-9.264" fill="#22404C"/><g transform="translate(30 11)"><mask id="d" fill="#fff"><use xlink:href="#c"/></mask><path d="M4.893 1.067c-.748 2.327-2.027 10.655-1.612 15.761.414 5.107 2.165 8.257 1.612 10.039-.553 1.78-2.672 1.596-3.316-1.508-.645-3.105-2.58-9.381-.922-16.403C2.314 1.934 3.65.266 4.248.05c.6-.216.875.3.645 1.017" fill="#22404C" mask="url(#d)"/></g><path d="M64.641 20.92c.113-2.16-1.179-7.212-.377-7.848.802-.637 2.736 3.047 2.736 8.233s-.85 6.657-1.698 6.695c-.85.037-.802-4.373-.66-7.08" fill="#22404C"/><g transform="translate(67 6)"><mask id="f" fill="#fff"><use xlink:href="#e"/></mask><path d="M2.675 14.913C2.866 6.673-.62.689.097.074.813-.54 4.49 2.583 4.92 12.474 5.35 22.366 4.011 28.002 2.46 28c-1.55-.001-.691-5.965-.31-7.385.383-1.42.526-5.702.526-5.702" fill="#22404C" mask="url(#f)"/></g></g></svg>
