<svg width="112" height="110" xmlns="http://www.w3.org/2000/svg"><g fill="none" fill-rule="evenodd"><path d="M9.248 36.533c9.87-4.01 28.136-22.726 33.908-25.972 5.771-3.247 14.068-9.379 21.282-9.379 7.215 0 11.543 1.083 15.15.362 3.607-.722 8.658-2.526 14.429 1.081 5.771 3.608 7.214 7.215 7.214 10.462 0 3.246 4.33 4.328 3.609 10.099-.724 5.772.359 7.576 3.245 11.544 2.887 3.967 4.69 10.821 2.525 19.118-2.164 8.296-5.411 11.543-5.411 16.593 0 5.05-3.968 12.265-6.853 16.593-2.886 4.328-11.543 16.233-16.594 18.757-5.049 2.526-15.51 4.69-19.479 1.443 0 0-18.757 5.05-21.281-.36 0 0-8.658 2.886-12.265-1.443-3.607-4.329-5.41-7.575-9.018-8.657-3.607-1.082-6.133-7.576-9.02-12.264-2.884-4.69-5.77-13.348-8.656-17.676-2.885-4.33-4.33-25.61 7.215-30.3" fill="#EBF0F3"/><path d="M72 35.936c-5.667-.746-10.704 8.956-15.508 9.175-4.806.218-13.325-6.772-19.443-3.933-6.116 2.84-9.61 25.558-6.553 35.608 3.058 10.048 9.176 16.82 15.727 13.106C52.778 86.178 55.4 75.91 63.044 75.91c7.646 0 20.971 7.209 23.812 1.31 2.839-5.897 6.551-25.776 0-29.271C80.302 44.456 80.302 37.028 72 35.936" fill="#FEFEFE"/><path d="M76.529 80s-29.256 1.616-30.87 1.616c-1.616 0-3.77-.717-3.77-5.564 0-4.846.18-23.332.18-23.332l7.896-.18v5.743c0 1.974 2.871 4.847 5.563 5.027 2.692.18 6.461.896 8.079.18 1.614-.72 2.331-9.872 2.331-10.41 0-.54 7.359.357 7.359.357s4.308 17.948 3.232 26.564zM60.375 59.54l-7.18-.18-1.255-6.64s8.255-.539 8.794.898c.539 1.435-.36 5.922-.36 5.922zm6.283-25.845l-.54 5.922-18.665-.537-.18-6.283 19.385.898zm14.896 5.922c-2.872 0-11.667-.717-11.667-.717s0-1.795.18-4.667c.18-2.871-.36-4.308-3.41-4.308-3.05 0-15.076-.538-17.77-.538-2.691 0-4.665.538-4.665 2.334 0 1.794.36 6.82.36 6.82s-7.719.717-10.052.898c-2.334.178-5.205-1.077-5.205 1.435S37.58 52.36 37.58 52.36s-1.435 18.666-1.435 23.691c0 5.025 4.667 9.333 8.257 9.512 3.588.18 25.305-.359 29.793-.718 4.487-.358 5.385-3.23 5.564-7.717.179-4.487-.897-25.127-.897-25.127 2.333 0 3.41-4.667 4.667-7.718 1.255-3.051.897-4.667-1.975-4.667z" fill="#E03C31"/><path d="M48.888 71.027c4.087-.585 14.538-.718 16.512-.718 1.974 0 4.308 3.23 2.334 3.41-1.975.18-7 .538-10.05.718-3.052.18-6.104.539-7.718.539-1.615 0-3.59-3.59-1.078-3.95" fill="#E03C31"/><path d="M32.723 53.557c-.373-1.369-7.427 2.41-6.624 4.416.802 2.008 7.226-2.207 6.624-4.416m52.193-.2c.376-2.257 5.42 1.405 4.617 3.212-.803 1.806-4.818-2.008-4.617-3.212m-2.208 4.014c-1.567 1.254 3.01 6.023 4.416 4.617 1.405-1.405-2.41-6.222-4.416-4.617M31.92 59.178c1.526 1.272-2.61 5.42-3.613 4.617-1.004-.803 2.408-5.621 3.613-4.617" fill="#29424E"/></g></svg>