<svg width="110" height="115" xmlns="http://www.w3.org/2000/svg"><g fill="none" fill-rule="evenodd"><path d="M22.465 6.261C34.394 2.32 48.648-.96 60.837 1.07c12.19 2.032 20.09 6.321 25.055 7.224 4.965.903 11.962 8.126 16.026 14.221 4.063 6.094 9.48 15.574 6.771 25.28-2.708 9.705-8.125 21.67-10.382 25.506-2.258 3.836-5.193 11.738-14.447 18.735s-16.026 21.217-29.117 21.669c-13.092.45-18.284-4.064-27.086-9.932-8.803-5.868-24.604-27.312-26.41-39.049C-.558 52.985-4.169 15.065 22.465 6.261" fill="#EBF0F3"/><path d="M69.74 21.666c-5.67-.745-10.705 8.956-15.51 9.175-4.805.218-13.325-6.772-19.442-3.932-6.116 2.84-9.61 25.557-6.553 35.607 3.058 10.048 9.175 16.82 15.729 13.105 6.553-3.712 9.174-13.979 16.82-13.979 7.645 0 20.97 7.208 23.81 1.311 2.84-5.9 6.554-25.777 0-29.272-6.553-3.495-6.553-10.923-14.855-12.015" fill="#FEFEFE"/><path d="M58.08 62.476c-4.854.498-19.669 3.735-21.66 4.108-1.993.374-2.615-.124-2.864-3.984-.25-3.858-.996-29.877-.996-29.877.996-.622 12.574-.374 25.27-1.12 12.627-.743 18.551-1.495 21.663-1.867 3.113-.374 3.486 0 3.486.994 0 .997-.249 22.783-.125 24.899.125 2.116 1.245 4.98-1.992 5.228-3.236.25-17.927 1.12-22.781 1.619m27.387 1.12c1.12-1.493.996-13.072.996-15.685 0-2.615-.124-18.175-.124-20.168 0-1.991-.996-3.112-4.108-3.112-3.113 0-45.688 4.73-47.929 4.855-2.375.132-3.237 1.618-3.112 4.108.124 2.49 0 30.5.124 32.99.125 2.49 1.62 3.735 5.603 3.61 3.982-.124 13.569-2.24 13.941-1.245.374.996-1.617 5.229-1.99 6.723-.375 1.493-1.618 4.232-3.735 4.108-2.117-.124-2.988 4.73-.622 4.98 2.365.249 19.295-.624 24.275-1.992 4.98-1.37 10.084-2.49 10.332-4.73.25-2.242-.498-5.478-2.863-5.23-2.366.249-3.36 1.992-5.353-1.99-1.991-3.984-2.116-4.607-2.116-4.607s3.236-.374 5.851-.374c2.614 0 9.71-.746 10.83-2.24" fill="#E13C31"/><path d="M57.956 46.541c-1.369 1.37-5.353 1.494-5.727-1.992-.374-3.486 2.491-4.48 4.358-4.48 7.968-.749 2.74 5.102 1.369 6.472m5.104 0s1.867-5.352 1.245-7.345c-.622-1.991-5.477-4.979-8.59-3.734-3.112 1.245-6.1 3.361-6.473 5.601-.373 2.241 1.12.374 1.12.374s-.872 5.353.498 6.598c0 0-6.05 6.322-5.602 16.183.125 2.74 3.486 1.619 3.486-.622 0-2.24.125-9.959 3.485-14.315 0 0 6.599 2.862 9.337-.873 0 0 5.228 2.366 5.228 12.2 0 2.366 2.99 2.117 2.99.125s.496-11.826-6.724-14.192" fill="#E13C31"/><path d="M44.957 22.916c.536-.082-3.221-6.527-5.002-5.34-1.78 1.186 3.9 5.51 5.002 5.34m8.053-11.953c2.532-.244 2.46 9.24 1.526 9.24-.931 0-4.154-8.986-1.525-9.24m11.614 2.119c1.953.14-.677 8.732-1.78 8.732-1.102 0-.593-8.9 1.78-8.732" fill="#29424E"/></g></svg>



